<?xml version="1.0" standalone="no"?>
<!DOCTYPE svg PUBLIC "-//W3C//DTD SVG 20010904//EN"
 "http://www.w3.org/TR/2001/REC-SVG-20010904/DTD/svg10.dtd">
<svg version="1.0" xmlns="http://www.w3.org/2000/svg"
 width="16.000000pt" height="16.000000pt" viewBox="0 0 16.000000 16.000000"
 preserveAspectRatio="xMidYMid meet">
<metadata>
Created by potrace 1.11, written by Peter Selinger 2001-2013
</metadata>
<g transform="translate(0.000000,16.000000) scale(0.001600,-0.001600)"
fill="#000000" stroke="none">
<path d="M4544 9705 c-10 -26 7 -35 71 -35 48 0 64 4 69 16 10 27 -3 34 -70
34 -47 0 -66 -4 -70 -15z"/>
<path d="M4746 9712 c-11 -10 -6 -42 7 -42 6 0 35 -3 63 -6 37 -4 53 -2 62 9
10 11 9 17 -1 25 -14 12 -122 24 -131 14z"/>
<path d="M4353 9695 c-26 -19 -1 -44 40 -39 18 2 46 5 62 7 22 3 30 9 30 23 0
16 -8 19 -57 20 -33 1 -65 -4 -75 -11z"/>
<path d="M4936 9683 c-9 -23 4 -32 55 -39 24 -3 49 -7 55 -9 6 -2 17 1 25 6
18 11 1 41 -27 45 -77 13 -102 12 -108 -3z"/>
<path d="M4205 9677 c-41 -10 -51 -16 -53 -36 -4 -23 -2 -24 48 -17 75 10 102
24 89 47 -11 21 -15 22 -84 6z"/>
<path d="M5235 9670 c-5 -16 -12 -19 -33 -13 -50 13 -67 9 -70 -14 -3 -18 3
-23 40 -30 38 -8 43 -12 40 -35 l-2 -26 70 21 71 21 -48 47 c-26 27 -51 49
-55 49 -4 0 -10 -9 -13 -20z"/>
<path d="M4015 9621 c-52 -18 -70 -45 -38 -55 30 -10 117 29 121 53 4 26 -15
27 -83 2z"/>
<path d="M3838 9545 c-56 -30 -63 -39 -43 -58 13 -14 21 -12 70 15 38 20 55
35 53 46 -5 25 -28 24 -80 -3z"/>
<path d="M3684 9453 c-51 -35 -64 -48 -64 -67 0 -25 29 -19 82 17 50 33 57 47
35 65 -10 9 -23 5 -53 -15z"/>
<path d="M3517 9310 c-36 -38 -45 -69 -21 -77 22 -7 113 95 97 110 -15 16 -40
4 -76 -33z"/>
<path d="M4928 9345 c-2 -2 -48 -6 -103 -9 -330 -22 -655 -158 -908 -381 -94
-83 -119 -110 -203 -221 -220 -291 -325 -673 -290 -1049 4 -44 9 -82 11 -85 2
-3 6 -25 10 -48 8 -58 60 -212 99 -297 48 -103 192 -326 236 -365 3 -3 37 -43
75 -90 79 -96 131 -148 192 -191 51 -36 63 -56 63 -107 0 -51 -24 -72 -97 -87
-81 -16 -287 -6 -423 21 -14 2 -62 11 -108 19 -123 22 -369 82 -437 105 -33
12 -67 23 -75 25 -16 3 -224 78 -280 100 -175 70 -526 182 -695 222 -49 11
-208 10 -252 -1 -147 -40 -242 -126 -327 -298 -74 -151 -90 -247 -62 -373 17
-75 77 -197 140 -283 52 -70 203 -225 256 -264 194 -139 527 -255 925 -323 22
-4 49 -9 60 -11 11 -1 61 -10 110 -18 124 -21 130 -22 214 -51 212 -72 419
-234 558 -435 174 -254 217 -549 122 -840 -41 -124 -131 -345 -197 -485 -160
-336 -460 -926 -563 -1105 -233 -406 -379 -722 -425 -915 -88 -376 -55 -645
111 -895 79 -118 174 -206 283 -260 189 -93 416 -77 678 50 211 102 431 289
549 466 81 121 197 344 270 519 7 17 20 46 28 65 46 104 180 469 233 638 34
107 42 122 61 123 13 1 41 2 63 3 l40 1 0 -77 0 -78 65 0 65 0 0 75 c0 43 4
75 10 76 6 0 24 1 40 1 17 0 36 -1 43 -1 7 -1 21 -25 31 -53 55 -157 205 -468
287 -598 110 -172 165 -251 259 -377 62 -81 117 -152 123 -158 7 -5 30 -32 52
-60 21 -27 42 -52 45 -55 3 -3 56 -62 117 -131 258 -291 460 -415 688 -424
239 -10 466 150 595 419 68 142 85 220 83 383 -3 349 -198 764 -636 1352 -150
201 -250 353 -330 500 -31 57 -57 105 -57 107 0 2 -13 32 -30 66 -16 34 -30
66 -30 72 1 6 19 29 40 51 69 69 44 110 -26 43 l-42 -40 -22 58 c-122 321
-186 611 -215 979 -9 114 -5 326 6 365 17 55 55 82 122 84 44 2 191 -16 317
-38 92 -17 148 -26 180 -30 19 -3 85 -11 145 -20 61 -8 128 -18 150 -21 178
-24 561 -24 730 -1 153 22 359 70 435 102 248 106 385 214 460 363 75 148 79
352 10 496 -76 158 -229 252 -503 310 -125 26 -639 26 -774 1 -11 -3 -60 -7
-109 -11 -49 -4 -98 -9 -109 -11 -27 -6 -311 -6 -355 0 -142 17 -241 41 -354
86 -74 29 -230 108 -270 136 -18 12 -18 14 -3 14 10 0 17 8 17 20 0 21 -79 63
-116 62 -45 -3 -104 122 -98 208 3 50 20 68 190 212 102 86 211 204 291 315
122 168 235 436 269 633 2 14 6 34 8 45 20 89 26 277 12 365 -29 192 -99 365
-214 530 -44 64 -45 66 -33 108 6 24 9 48 6 53 -11 17 -35 9 -47 -16 -11 -25
-12 -24 -107 71 -91 91 -269 235 -329 264 -15 8 -34 20 -42 26 -15 13 -180 96
-250 127 -105 46 -275 99 -375 117 -33 5 -71 12 -85 15 -14 3 -63 8 -110 11
-47 3 -102 7 -122 8 -21 2 -39 2 -40 1z m48 -6645 c14 -88 15 -85 -44 -84 -29
0 -55 3 -58 6 -4 5 18 94 58 233 l11 40 13 -75 c8 -41 17 -95 20 -120z m-108
-277 l-3 -77 -37 -1 c-21 -1 -38 0 -38 2 0 3 10 38 22 79 17 58 25 74 40 74
17 0 19 -7 16 -77z m158 50 c3 -16 12 -49 19 -75 14 -50 11 -59 -21 -54 -17 2
-19 12 -22 79 -3 77 11 106 24 50z"/>
<path d="M7872 9208 c-2 -40 -4 -74 -6 -75 -2 -2 -14 1 -28 6 -64 24 -120 -44
-120 -145 -1 -60 16 -99 54 -127 23 -17 32 -18 67 -9 23 5 41 6 41 1 0 -5 6
-9 13 -9 9 0 14 13 14 38 5 324 4 375 -9 383 -22 15 -24 11 -26 -63z m-27
-110 c25 -11 26 -13 23 -107 l-3 -96 -42 -3 c-33 -2 -44 1 -53 17 -25 48 -12
162 23 186 26 18 20 18 52 3z"/>
<path d="M7556 9225 c4 -8 16 -15 29 -15 29 0 30 -9 30 -180 l0 -135 -27 -3
c-16 -2 -28 -9 -28 -18 0 -11 16 -14 74 -14 41 0 77 4 81 9 7 13 -24 29 -47
26 -17 -3 -18 10 -18 156 0 152 1 159 20 159 11 0 20 7 20 15 0 12 -14 15 -70
15 -58 0 -68 -3 -64 -15z"/>
<path d="M8620 9201 c0 -29 14 -42 38 -33 15 5 16 34 0 50 -21 21 -38 13 -38
-17z"/>
<path d="M8749 9207 c-1 -9 -2 -32 -3 -49 -1 -28 -5 -33 -29 -36 -34 -4 -34
-38 -1 -36 20 1 22 -5 26 -93 4 -71 10 -98 23 -113 18 -20 59 -25 102 -14 34
9 17 32 -24 31 -43 -1 -63 21 -64 75 0 21 -1 55 -2 76 0 36 1 37 38 42 55 7
57 28 3 32 -42 3 -43 4 -44 41 -1 39 -23 77 -25 44z"/>
<path d="M3412 9182 c-36 -51 -51 -88 -42 -103 14 -21 36 -3 71 58 29 50 29
52 10 62 -16 9 -23 6 -39 -17z"/>
<path d="M8450 9183 c4 -56 1 -63 -26 -63 -18 0 -25 -5 -22 -17 2 -9 11 -17
21 -19 26 -4 26 -1 28 -86 1 -41 8 -90 15 -108 13 -31 15 -31 66 -28 39 2 53
7 53 18 0 10 -11 15 -33 16 -50 1 -61 19 -66 106 -5 84 -2 88 55 88 28 0 39
13 20 24 -5 3 -25 7 -45 8 -35 3 -36 4 -36 46 0 32 -4 42 -16 42 -11 0 -15 -8
-14 -27z"/>
<path d="M8015 9128 c-34 -20 -44 -34 -52 -75 -9 -44 -9 -53 1 -110 11 -58 44
-84 99 -77 70 8 102 19 105 38 2 10 0 16 -5 13 -5 -3 -37 -9 -70 -13 -54 -5
-64 -3 -82 15 -12 12 -21 34 -21 51 0 24 4 30 23 30 64 0 137 40 137 75 0 9
-11 27 -25 40 -26 27 -75 33 -110 13z m88 -42 c4 -11 -10 -21 -49 -35 -30 -12
-57 -21 -60 -21 -9 0 26 58 38 63 26 11 66 6 71 -7z"/>
<path d="M8199 9088 c0 -29 -1 -91 -3 -137 -1 -62 2 -85 12 -88 23 -9 26 5 24
103 -2 112 7 136 46 129 49 -9 57 -33 52 -159 -1 -40 3 -61 12 -67 31 -20 35
-9 31 93 -4 103 -21 167 -45 169 -7 0 -21 2 -30 4 -9 2 -28 -3 -41 -10 -21
-11 -26 -11 -31 1 -12 31 -26 11 -27 -38z"/>
<path d="M8629 9130 c-1 -8 -3 -26 -4 -40 -7 -72 -8 -207 -1 -218 10 -16 36
-15 37 1 1 12 -1 72 -5 189 -1 32 -7 63 -14 70 -9 9 -12 9 -13 -2z"/>
<path d="M8900 9113 c0 -65 44 -199 76 -231 12 -12 9 -24 -22 -83 -28 -53 -34
-73 -26 -81 16 -16 22 -8 68 77 48 90 87 186 104 255 18 69 18 73 5 82 -18 13
-33 8 -31 -9 6 -39 -55 -213 -75 -213 -11 0 -44 94 -59 168 -8 39 -18 62 -26
62 -8 0 -14 -11 -14 -27z"/>
<path d="M6923 9112 c-25 -4 -37 -26 -20 -40 7 -6 39 -10 72 -9 53 2 60 4 60
22 0 16 -8 21 -45 25 -25 3 -55 4 -67 2z"/>
<path d="M6795 9104 c-5 -2 -29 -8 -52 -14 -43 -11 -58 -35 -29 -46 19 -7 124
15 132 28 11 18 -24 40 -51 32z"/>
<path d="M7093 9085 c-8 -22 13 -34 57 -36 19 0 43 -2 52 -4 9 -2 23 4 30 12
19 23 -11 39 -77 42 -43 2 -57 -1 -62 -14z"/>
<path d="M7296 9082 c-11 -10 -6 -40 7 -44 10 -4 97 -3 120 1 10 2 9 29 -3 36
-13 8 -117 14 -124 7z"/>
<path d="M6584 9020 c-42 -30 -59 -54 -48 -71 9 -15 22 -10 75 27 32 24 48 42
45 51 -3 8 -6 17 -6 19 0 11 -29 0 -66 -26z"/>
<path d="M3301 8969 c-20 -49 -22 -62 -11 -69 22 -14 36 -1 59 55 24 56 22 75
-7 75 -12 0 -25 -20 -41 -61z"/>
<path d="M6472 8898 c-5 -7 -20 -33 -32 -57 -18 -36 -20 -46 -8 -57 7 -7 18
-10 24 -6 17 11 65 111 59 122 -9 14 -31 12 -43 -2z"/>
<path d="M3234 8815 c-22 -48 -24 -98 -2 -103 12 -2 22 12 38 54 11 31 19 63
16 71 -10 24 -35 14 -52 -22z"/>
<path d="M3183 8658 c-6 -7 -17 -34 -26 -60 -12 -38 -13 -50 -3 -64 19 -25 33
-11 52 50 21 68 7 112 -23 74z"/>
<path d="M3125 8465 c-11 -8 -17 -15 -13 -15 3 0 0 -22 -7 -50 -11 -42 -11
-51 2 -61 20 -17 38 4 52 65 10 40 10 52 -1 63 -12 11 -17 11 -33 -2z"/>
<path d="M3083 8278 c-4 -7 -8 -17 -9 -23 -16 -96 -16 -105 1 -111 24 -10 33
4 43 69 8 51 7 59 -9 67 -12 7 -20 6 -26 -2z"/>
<path d="M3051 8068 c-11 -32 -13 -116 -2 -122 23 -15 39 7 43 57 2 29 2 60 0
70 -6 24 -31 21 -41 -5z"/>
<path d="M3036 7873 c-8 -30 2 -116 16 -124 23 -14 34 9 32 68 -1 32 -2 61 -3
66 -2 15 -40 6 -45 -10z"/>
<path d="M3051 7681 c-6 -10 -9 -20 -6 -22 2 -3 6 -24 9 -48 6 -51 18 -66 41
-57 14 5 16 15 11 54 -4 26 -9 54 -12 64 -7 24 -32 30 -43 9z"/>
<path d="M3090 7475 c0 -36 29 -102 47 -110 31 -11 35 12 13 74 -17 45 -28 61
-41 61 -14 0 -19 -7 -19 -25z"/>
<path d="M1982 7483 c-26 -5 -40 -29 -25 -44 10 -10 112 -2 132 11 7 3 9 14 5
23 -6 17 -54 21 -112 10z"/>
<path d="M2146 7461 c-10 -15 19 -38 69 -55 44 -14 51 -15 64 -1 18 18 10 26
-47 48 -47 19 -78 22 -86 8z"/>
<path d="M1813 7425 c-53 -24 -64 -37 -40 -52 15 -10 40 -6 75 13 15 7 32 14
38 14 17 0 24 26 11 39 -15 15 -24 14 -84 -14z"/>
<path d="M2337 7394 c-19 -19 -3 -42 47 -66 46 -23 57 -25 72 -14 16 12 14 16
-26 45 -24 17 -46 31 -51 31 -4 0 -14 2 -21 5 -8 3 -17 2 -21 -1z"/>
<path d="M1627 7340 c-32 -20 -45 -34 -41 -45 8 -21 24 -19 83 11 35 17 51 31
51 45 0 28 -38 24 -93 -11z"/>
<path d="M3165 7309 c-8 -12 55 -119 70 -119 5 0 16 4 24 9 11 7 10 16 -9 47
-42 71 -69 90 -85 63z"/>
<path d="M2507 7293 c-16 -16 -4 -33 44 -63 28 -17 58 -29 65 -26 27 10 14 36
-33 66 -49 30 -65 35 -76 23z"/>
<path d="M1468 7249 c-48 -31 -65 -69 -31 -69 28 0 114 61 111 79 -5 26 -30
23 -80 -10z"/>
<path d="M2672 7188 c-17 -17 -4 -35 48 -68 49 -31 84 -32 72 -2 -12 34 -103
87 -120 70z"/>
<path d="M1308 7134 c-49 -36 -60 -60 -34 -70 24 -9 102 50 108 82 5 31 -24
26 -74 -12z"/>
<path d="M3287 7153 c-15 -14 -5 -40 32 -83 35 -40 41 -43 55 -30 14 14 12 20
-21 68 -35 49 -51 61 -66 45z"/>
<path d="M2843 7083 c-26 -9 -12 -40 32 -71 25 -18 52 -32 60 -32 18 0 27 14
20 32 -8 19 -98 76 -112 71z"/>
<path d="M1161 6995 c-44 -48 -48 -68 -15 -72 24 -3 96 81 88 102 -10 25 -30
17 -73 -30z"/>
<path d="M3395 6990 c-8 -14 64 -120 81 -120 27 0 26 31 -2 73 -39 57 -64 72
-79 47z"/>
<path d="M2993 6955 c-3 -9 -4 -17 -2 -19 43 -33 103 -66 115 -62 26 10 15 35
-30 66 -49 33 -74 38 -83 15z"/>
<path d="M1041 6843 c-35 -53 -40 -83 -12 -83 21 0 85 96 77 116 -10 26 -34
14 -65 -33z"/>
<path d="M3167 6863 c-16 -15 -5 -42 21 -55 15 -8 37 -20 48 -28 24 -15 54 -8
54 12 0 7 -24 28 -54 46 -59 35 -60 35 -69 25z"/>
<path d="M3511 6830 c-13 -7 -13 -14 -1 -48 7 -23 10 -47 7 -56 -9 -23 19 -42
39 -25 36 30 -7 153 -45 129z"/>
<path d="M7220 6827 c0 -2 -16 -51 -37 -108 -97 -276 -98 -281 -67 -293 16 -6
44 46 44 81 1 44 34 54 124 37 23 -4 46 -30 46 -51 0 -8 7 -28 16 -45 13 -26
18 -28 30 -17 16 16 15 18 -65 249 -41 116 -55 146 -71 148 -11 2 -20 2 -20
-1z m67 -198 l21 -47 -57 2 c-31 1 -57 6 -58 11 -3 8 23 98 44 155 3 9 10 -3
18 -30 6 -25 21 -66 32 -91z"/>
<path d="M8624 6797 c-3 -9 -1 -25 6 -36 9 -17 15 -19 30 -11 15 8 17 15 11
33 -10 26 -39 35 -47 14z"/>
<path d="M7419 6795 c-4 -20 -6 -41 -8 -65 -1 -18 -7 -26 -22 -27 -27 -2 -33
-8 -25 -28 4 -11 12 -14 26 -10 19 6 20 2 20 -67 0 -89 14 -144 41 -158 17
-10 81 -5 102 7 17 10 -14 29 -42 25 -39 -5 -59 26 -62 98 -3 102 -4 100 41
100 29 0 40 4 40 15 0 10 -10 15 -32 15 -44 0 -55 10 -54 43 2 27 -21 74 -25
52z"/>
<path d="M7619 6787 c-1 -7 -2 -19 -3 -27 -2 -8 -3 -24 -4 -35 -1 -13 -10 -21
-23 -22 -27 -2 -33 -8 -25 -28 4 -11 12 -14 26 -10 19 6 20 2 20 -67 0 -136
24 -173 103 -162 37 5 44 10 40 24 -4 15 -12 17 -38 13 -45 -7 -63 22 -65 107
-3 81 -2 90 8 89 4 -1 22 -1 40 0 43 1 45 30 2 32 -16 1 -36 2 -42 3 -8 1 -13
17 -13 43 0 25 -5 45 -12 48 -7 2 -13 -1 -14 -8z"/>
<path d="M8459 6788 c-1 -7 -3 -22 -4 -33 -1 -11 -3 -28 -3 -37 -1 -12 -10
-18 -27 -18 -18 0 -25 -5 -25 -19 0 -14 6 -18 25 -16 25 3 25 2 25 -74 0 -129
25 -168 98 -155 48 9 55 13 43 28 -6 7 -24 11 -40 8 -41 -6 -59 26 -64 110 -3
64 2 91 17 89 37 -5 66 1 66 14 0 10 -11 15 -30 16 -16 1 -36 2 -42 3 -7 0
-14 15 -14 31 -1 17 -2 38 -3 48 -1 19 -20 24 -22 5z"/>
<path d="M3334 6755 c-9 -22 2 -32 56 -50 91 -30 113 12 25 46 -60 23 -74 24
-81 4z"/>
<path d="M8030 6723 c-26 -10 -39 -24 -34 -38 5 -11 10 -11 32 1 28 14 61 10
74 -10 10 -14 10 -46 1 -45 -53 8 -117 -44 -128 -104 -13 -69 44 -114 106 -83
26 13 30 13 38 -1 5 -9 15 -14 23 -10 18 7 24 157 8 222 -14 62 -63 89 -120
68z m84 -171 c-1 -20 -2 -42 -3 -49 -2 -19 -69 -37 -86 -23 -34 28 -6 92 49
115 36 16 43 9 40 -43z"/>
<path d="M8778 6714 c-50 -27 -74 -161 -42 -230 25 -53 77 -73 125 -48 25 12
38 35 55 94 20 71 -15 162 -71 186 -40 17 -34 17 -67 -2z m74 -42 c37 -45 42
-100 14 -166 -18 -44 -51 -52 -82 -21 -19 19 -24 34 -24 77 1 71 31 139 59
131 11 -3 26 -12 33 -21z"/>
<path d="M956 6688 c-18 -41 -28 -69 -32 -86 -4 -19 25 -27 40 -11 19 20 49
107 41 119 -12 20 -36 9 -49 -22z"/>
<path d="M7799 6698 c0 -12 -2 -30 -3 -38 -2 -8 -6 -58 -10 -111 -4 -78 -3
-99 9 -109 27 -23 35 0 35 104 0 97 1 103 23 113 43 21 55 22 72 3 20 -22 35
-18 35 9 0 18 -37 41 -66 41 -8 0 -29 -7 -45 -16 -28 -14 -30 -14 -27 2 2 9
-3 19 -9 21 -8 3 -13 -5 -14 -19z"/>
<path d="M8275 6711 c-49 -21 -73 -82 -70 -174 3 -85 28 -110 107 -109 52 1
78 10 78 28 0 12 -10 14 -58 8 -75 -8 -87 5 -86 90 0 75 22 112 72 125 19 6
38 8 42 6 9 -5 36 13 29 20 -11 10 -93 15 -114 6z"/>
<path d="M8969 6668 c-1 -29 -2 -91 -3 -138 -1 -82 5 -103 28 -94 8 3 11 39
10 108 -1 57 1 108 5 115 14 22 57 22 76 1 14 -16 18 -39 19 -117 2 -95 2 -98
25 -101 l24 -4 -6 106 c-3 58 -12 118 -19 133 -17 34 -62 47 -99 29 -24 -12
-29 -12 -33 0 -12 31 -26 11 -27 -38z"/>
<path d="M8629 6668 c-6 -221 -6 -223 19 -226 l24 -4 -5 104 c-3 57 -6 118 -6
136 -1 21 -6 32 -16 32 -11 0 -15 -12 -16 -42z"/>
<path d="M6725 6672 c-45 -7 -75 -25 -75 -43 0 -22 8 -23 84 -8 49 10 57 15
54 32 -3 20 -23 26 -63 19z"/>
<path d="M6849 6664 c-17 -21 0 -35 47 -41 22 -2 45 -6 53 -9 15 -5 41 13 41
27 0 12 -35 25 -87 32 -30 5 -45 2 -54 -9z"/>
<path d="M6549 6563 c-12 -21 -24 -50 -26 -65 -3 -23 0 -28 17 -28 11 0 24 8
27 18 4 9 16 33 28 52 12 19 20 41 18 48 -9 24 -41 12 -64 -25z"/>
<path d="M896 6503 c-17 -82 -17 -103 -1 -109 23 -9 33 5 41 51 12 71 10 80
-13 83 -16 2 -22 -3 -27 -25z"/>
<path d="M6491 6397 c-5 -13 -13 -45 -16 -71 -7 -46 -7 -48 16 -44 18 2 25 13
36 57 8 30 12 60 9 67 -8 22 -36 16 -45 -9z"/>
<path d="M878 6328 c-3 -7 -4 -37 -3 -67 1 -40 6 -58 18 -65 13 -8 20 -8 26 2
10 16 8 113 -3 130 -9 16 -33 15 -38 0z"/>
<path d="M6426 6217 c-13 -12 -36 -32 -51 -45 -20 -18 -24 -26 -15 -37 6 -7
19 -11 30 -8 23 6 90 72 90 89 0 23 -30 23 -54 1z"/>
<path d="M6167 6166 c-8 -20 10 -32 65 -46 54 -14 81 -8 76 17 -2 11 -21 21
-53 30 -65 16 -82 16 -88 -1z"/>
<path d="M894 6126 c-3 -7 1 -37 9 -67 11 -44 17 -55 36 -57 22 -4 23 -1 18
35 -11 62 -15 82 -22 93 -9 15 -35 12 -41 -4z"/>
<path d="M944 5937 c-7 -19 30 -109 50 -122 28 -17 36 12 17 64 -9 25 -20 52
-24 59 -11 16 -36 15 -43 -1z"/>
<path d="M1024 5755 c-13 -33 45 -128 71 -118 21 7 19 24 -11 82 -27 51 -49
64 -60 36z"/>
<path d="M1120 5585 c-9 -11 -5 -23 20 -60 35 -50 55 -64 72 -47 8 8 1 26 -25
67 -40 59 -48 63 -67 40z"/>
<path d="M1237 5433 c-14 -13 -6 -30 31 -71 68 -75 106 -44 40 32 -38 44 -57
54 -71 39z"/>
<path d="M1374 5285 c-8 -19 5 -35 55 -69 40 -28 72 -27 64 2 -5 18 -85 82
-103 82 -6 0 -13 -7 -16 -15z"/>
<path d="M1534 5175 c-9 -21 2 -33 58 -61 42 -21 53 -23 64 -12 18 17 8 29
-50 61 -56 31 -65 32 -72 12z"/>
<path d="M1714 5095 c-11 -27 3 -40 61 -59 48 -15 59 -16 66 -4 15 23 4 32
-60 55 -53 19 -63 21 -67 8z"/>
<path d="M1902 5037 c-18 -21 1 -37 61 -51 57 -13 77 -8 77 20 0 13 -9 17 -65
29 -16 3 -37 8 -46 11 -9 2 -21 -1 -27 -9z"/>
<path d="M2094 4996 c-10 -26 5 -35 67 -41 40 -4 59 -2 67 7 19 23 -1 36 -65
44 -54 6 -64 4 -69 -10z"/>
<path d="M2287 4976 c-9 -22 13 -34 63 -36 73 -3 80 -1 80 19 0 23 -11 27 -81
30 -42 1 -58 -2 -62 -13z"/>
<path d="M2484 4965 c-10 -24 6 -33 61 -35 79 -3 85 -1 85 19 0 21 -14 26 -88
30 -41 2 -53 -1 -58 -14z"/>
<path d="M2683 4954 c-7 -19 14 -43 35 -40 9 2 31 0 48 -4 40 -9 68 5 55 28
-5 10 -20 19 -33 20 -12 1 -40 4 -61 6 -27 3 -40 0 -44 -10z"/>
<path d="M2881 4927 c-19 -19 -13 -27 35 -47 58 -25 70 -25 77 1 4 15 -1 23
-21 31 -57 22 -80 26 -91 15z"/>
<path d="M3060 4845 c-15 -18 -18 -15 50 -53 57 -31 80 -32 80 -3 0 10 -20 27
-52 44 -62 32 -62 32 -78 12z"/>
<path d="M3227 4748 c-6 -19 19 -65 40 -71 10 -4 27 -13 39 -22 19 -14 22 -14
34 0 11 13 6 22 -34 60 -47 46 -71 55 -79 33z"/>
<path d="M3142 4619 c-41 -40 -50 -68 -25 -76 20 -7 107 81 100 101 -10 25
-29 19 -75 -25z"/>
<path d="M3364 4605 c-8 -19 47 -120 66 -120 24 0 24 35 -1 79 -31 56 -54 71
-65 41z"/>
<path d="M2999 4482 c-28 -28 -48 -56 -44 -61 13 -22 42 -10 85 34 41 42 43
46 27 62 -15 15 -20 13 -68 -35z"/>
<path d="M3437 4426 c-6 -16 7 -123 16 -132 3 -4 14 -4 23 0 14 5 16 16 11 68
-5 54 -16 77 -38 78 -4 0 -9 -6 -12 -14z"/>
<path d="M2850 4345 c-42 -43 -43 -46 -27 -62 16 -16 20 -15 67 32 38 37 47
52 38 62 -17 21 -31 16 -78 -32z"/>
<path d="M854 4275 c-2 -5 -6 -94 -8 -197 l-4 -188 104 0 c151 0 134 36 -19
39 l-38 1 3 72 c3 78 2 77 79 79 45 2 71 15 47 24 -24 10 -49 13 -90 14 l-38
1 0 60 c0 59 1 60 28 60 43 1 137 12 141 16 3 2 0 9 -6 15 -14 14 -194 18
-199 4z"/>
<path d="M2405 4259 c-4 -5 -4 -21 -1 -35 9 -32 46 -34 46 -1 0 35 -31 60 -45
36z"/>
<path d="M3446 4218 c-15 -67 -15 -107 0 -119 24 -20 37 4 38 73 1 51 -2 63
-16 66 -11 2 -19 -5 -22 -20z"/>
<path d="M1297 4173 c-2 -5 -5 -99 -6 -211 -3 -206 2 -238 34 -226 10 4 13 24
11 80 -2 71 -2 74 18 68 30 -9 28 -9 61 -2 39 8 65 53 72 122 7 63 -8 114 -42
146 -20 19 -32 22 -68 18 -25 -3 -51 -1 -60 3 -9 5 -17 6 -20 2z m119 -41 c51
-34 41 -182 -14 -211 -12 -7 -26 -6 -43 2 -22 12 -24 19 -27 101 -2 56 1 93 9
102 12 15 57 19 75 6z"/>
<path d="M1814 4168 c-71 -18 -98 -107 -63 -214 15 -49 42 -68 86 -61 91 14
123 25 117 40 -3 10 -18 11 -64 3 -77 -13 -106 0 -116 49 -8 42 -6 44 32 48
51 6 104 28 114 47 33 62 -24 110 -106 88z m64 -40 c20 -20 14 -25 -48 -46
-67 -23 -76 -15 -29 29 33 31 58 36 77 17z"/>
<path d="M1996 4158 c-21 -30 -20 -81 2 -106 9 -10 33 -25 52 -32 72 -27 87
-64 35 -89 -22 -11 -35 -11 -60 -2 -57 20 -77 6 -32 -23 75 -49 172 -4 160 73
-4 27 -30 61 -46 61 -21 0 -78 34 -88 52 -18 33 -2 58 36 58 19 0 45 -4 59
-10 20 -7 26 -6 26 4 0 17 -51 36 -96 36 -23 0 -38 -7 -48 -22z"/>
<path d="M2206 4158 c-18 -26 -21 -71 -5 -99 5 -11 34 -30 63 -43 59 -26 75
-50 51 -76 -16 -18 -40 -19 -102 -5 -39 9 -45 -7 -10 -29 55 -37 124 -24 152
27 26 49 8 82 -59 113 -63 28 -76 41 -73 72 2 29 38 39 89 25 48 -13 54 9 7
26 -52 18 -96 14 -113 -11z"/>
<path d="M2543 4158 c-24 -25 -51 -125 -47 -170 4 -41 33 -84 69 -101 83 -40
157 74 125 193 -23 85 -102 127 -147 78z m78 -21 c28 -21 41 -57 38 -105 -4
-83 -42 -127 -88 -103 -41 22 -46 123 -9 199 13 24 34 28 59 9z"/>
<path d="M2749 4154 c-1 -16 -2 -82 -3 -146 -2 -108 0 -118 16 -118 16 0 18
11 18 108 0 117 6 132 51 132 36 0 50 -36 53 -143 2 -91 6 -103 30 -94 27 11
10 225 -21 259 -20 22 -55 23 -95 2 -16 -9 -28 -11 -24 -6 3 5 -1 15 -9 22
-13 11 -15 8 -16 -16z"/>
<path d="M1079 4153 c4 -10 21 -42 35 -72 l27 -53 -36 -68 c-23 -45 -32 -71
-25 -75 6 -4 12 -5 14 -4 1 2 19 28 40 57 l39 53 16 -28 c9 -15 23 -40 30 -55
15 -29 35 -36 46 -18 6 10 -49 108 -69 121 -9 7 21 65 52 101 16 19 10 48 -10
48 -8 0 -27 -23 -44 -50 l-31 -50 -25 37 c-13 21 -27 46 -31 56 -3 9 -13 17
-22 17 -11 0 -13 -5 -6 -17z"/>
<path d="M1549 4138 c0 -31 -3 -62 -13 -181 -4 -46 10 -77 35 -77 9 0 12 62 9
165 -1 46 1 52 28 68 37 21 61 22 68 2 10 -24 36 -18 32 7 -5 33 -57 51 -93
32 -34 -17 -35 -17 -35 1 0 8 -7 15 -15 15 -10 0 -15 -11 -16 -32z"/>
<path d="M2410 4163 c-1 -5 -3 -65 -6 -134 -5 -112 -4 -127 11 -133 9 -3 21
-4 25 -1 9 5 4 208 -6 253 -4 20 -23 32 -24 15z"/>
<path d="M3433 4042 c-15 -9 -37 -107 -29 -127 3 -8 12 -15 20 -15 14 0 21 19
40 101 6 29 -12 53 -31 41z"/>
<path d="M3362 3791 c-33 -97 10 -116 46 -19 21 58 19 78 -8 78 -13 0 -24 -16
-38 -59z"/>
<path d="M3312 3658 c-5 -7 -19 -33 -31 -56 -40 -79 2 -101 45 -24 27 47 32
92 10 92 -7 0 -18 -6 -24 -12z"/>
<path d="M6768 3632 c-36 -3 -55 -23 -42 -44 9 -14 125 -2 135 14 11 17 -9 38
-35 35 -11 -1 -37 -3 -58 -5z"/>
<path d="M6932 3629 c-48 -18 -18 -45 59 -54 44 -5 57 -3 62 8 3 7 2 18 -1 24
-10 16 -95 31 -120 22z"/>
<path d="M6603 3589 c-51 -20 -72 -44 -54 -62 10 -10 97 18 121 40 13 11 13
15 0 27 -13 12 -22 12 -67 -5z"/>
<path d="M7104 3586 c-3 -8 -3 -20 1 -25 10 -17 116 -44 126 -34 18 18 -2 40
-44 52 -23 7 -50 15 -60 17 -10 3 -20 -1 -23 -10z"/>
<path d="M8295 3558 c-66 -59 -46 -129 55 -195 93 -61 122 -126 67 -150 -24
-11 -78 -10 -119 2 -22 5 -28 4 -28 -8 0 -21 54 -40 116 -41 69 0 104 28 104
85 0 59 -18 86 -89 133 -94 61 -113 93 -82 134 20 27 55 33 109 17 70 -21 64
10 -7 34 -53 17 -97 14 -126 -11z"/>
<path d="M7284 3525 c-9 -22 1 -30 60 -50 42 -14 59 -16 67 -8 20 20 3 38 -53
56 -66 21 -67 21 -74 2z"/>
<path d="M6437 3478 c-49 -41 -58 -62 -31 -72 19 -7 103 62 104 85 0 32 -27
27 -73 -13z"/>
<path d="M3192 3438 c-31 -55 -32 -78 -3 -78 18 0 85 112 74 123 -18 19 -43 3
-71 -45z"/>
<path d="M7463 3464 c-3 -8 -2 -19 3 -24 13 -12 115 -40 125 -34 19 12 7 36
-23 48 -58 24 -98 27 -105 10z"/>
<path d="M8585 3436 c-50 -22 -60 -42 -60 -120 0 -119 35 -161 123 -145 81 15
92 19 92 34 0 12 -8 14 -37 9 -103 -17 -125 -10 -142 38 -14 40 -2 53 66 63
82 12 115 74 62 118 -25 20 -62 21 -104 3z m85 -44 c0 -13 -15 -23 -50 -36
-66 -24 -79 -17 -42 22 35 37 92 46 92 14z"/>
<path d="M8750 3439 c0 -7 14 -42 31 -76 l31 -63 -36 -70 c-32 -60 -35 -70
-19 -69 10 0 32 21 49 47 17 26 35 46 39 45 5 0 18 -18 29 -40 33 -59 36 -63
51 -56 22 8 19 19 -20 77 -19 29 -35 59 -35 66 0 6 14 32 30 57 31 45 37 68
21 78 -11 6 -61 -44 -61 -61 0 -6 -6 -17 -13 -23 -10 -8 -19 -4 -35 19 -12 16
-22 33 -22 38 0 5 -9 17 -20 27 -15 14 -20 15 -20 4z"/>
<path d="M7651 3416 c-18 -22 10 -42 70 -50 81 -11 92 34 11 48 -20 4 -44 9
-53 12 -9 2 -21 -2 -28 -10z"/>
<path d="M7834 3375 c-8 -20 10 -34 46 -36 14 0 37 -3 51 -5 29 -5 52 15 40
34 -4 7 -36 16 -69 19 -52 4 -63 2 -68 -12z"/>
<path d="M8025 3361 c-8 -20 16 -37 51 -36 34 2 56 31 34 45 -23 14 -78 9 -85
-9z"/>
<path d="M3119 3312 c-54 -66 -70 -104 -50 -116 17 -11 36 4 64 50 31 52 32
57 14 73 -11 8 -17 7 -28 -7z"/>
<path d="M3014 3152 c-19 -13 -64 -86 -64 -104 0 -33 36 -19 68 27 43 61 40
108 -4 77z"/>
<path d="M2903 2992 c-5 -4 -23 -27 -40 -52 -23 -34 -29 -50 -22 -63 5 -9 16
-14 24 -11 15 6 75 94 75 111 0 14 -24 23 -37 15z"/>
<path d="M2793 2833 c-6 -2 -26 -27 -44 -54 -27 -43 -30 -52 -18 -64 8 -8 19
-11 24 -7 14 10 60 74 68 94 7 18 -12 38 -30 31z"/>
<path d="M2641 2623 c-17 -25 -31 -52 -31 -59 0 -14 31 -28 39 -17 33 44 69
108 65 114 -13 22 -44 6 -73 -38z"/>
<path d="M2530 2460 c-32 -49 -34 -80 -6 -80 19 0 80 96 72 115 -10 28 -34 15
-66 -35z"/>
<path d="M2425 2294 c-34 -52 -36 -57 -21 -72 20 -20 30 -11 70 60 26 46 27
47 7 57 -17 9 -24 4 -56 -45z"/>
<path d="M2342 2152 c-11 -15 -27 -41 -35 -58 -15 -28 -15 -33 -2 -44 12 -10
18 -10 31 0 17 15 54 87 54 106 0 25 -30 23 -48 -4z"/>
<path d="M2233 1946 c-28 -58 -26 -88 5 -79 21 5 68 106 57 123 -14 23 -37 7
-62 -44z"/>
<path d="M2167 1778 c-25 -69 -25 -93 0 -96 18 -3 24 5 38 54 9 31 14 63 11
70 -10 27 -33 13 -49 -28z"/>
<path d="M2134 1622 c-7 -4 -15 -35 -19 -68 -5 -48 -3 -63 8 -67 26 -10 37 9
44 76 6 68 -1 80 -33 59z"/>
<path d="M2118 1426 c-9 -8 -13 -30 -12 -57 1 -24 3 -52 3 -62 1 -13 7 -17 24
-15 20 3 22 8 22 66 0 68 -13 93 -37 68z"/>
<path d="M2123 1229 c-13 -13 -6 -107 9 -126 6 -7 17 -13 24 -13 15 0 18 14
14 65 -5 77 -20 101 -47 74z"/>
<path d="M2147 1034 c-7 -7 -1 -51 15 -101 6 -22 16 -33 29 -33 15 0 19 7 18
33 -1 66 -37 125 -62 101z"/>
<path d="M2196 842 c-3 -5 4 -37 15 -71 15 -44 26 -61 39 -61 28 0 30 21 6 80
-21 51 -46 73 -60 52z"/>
<path d="M2273 659 c-9 -9 -5 -25 15 -65 25 -52 44 -70 63 -58 15 9 9 37 -19
83 -30 49 -42 57 -59 40z"/>
<path d="M2357 506 l-49 -44 67 -22 c36 -12 68 -20 70 -18 8 8 -20 128 -30
128 -5 -1 -32 -20 -58 -44z"/>
</g>
</svg>
